{"title":"Nengo Flow Ft Wise - La Calle No Juega (h264/mp4)","uid":7435480,"size":111225957,"categoryP":"video","categoryS":"music_videos","magnet":"?xt=urn:btih:3b3a4de61a4fe6c8e54a69cb6c62043cb4cb3245&amp;dn=Nengo+Flow+Ft+Wise+-+La+Calle+No+Juega+%28h264%2Fmp4%29&amp;tr=udp%3A%2F%2Ftracker.openbittorrent.com%3A80&amp;tr=udp%3A%2F%2Fopen.demonii.com%3A1337&amp;tr=udp%3A%2F%2Ftracker.coppersurfer.tk%3A6969&amp;tr=udp%3A%2F%2Fexodus.desync.com%3A6969","seeders":1,"leechers":0,"uploader":"MusicVideos-HQ","files":1,"time":1342067914,"description":"General\n\nFormat                         : MPEG-4\nFormat profile                 : Base Media\nCodec ID                       : isom\nFile size                      : 106 MiB\nDuration                       : 3mn 48s\nOverall bit rate mode          : Variable\nOverall bit rate               : 3 901 Kbps\nEncoded date                   : UTC 2012-07-09 00:23:25\nTagged date                    : UTC 2012-07-09 00:23:25\n\nVideo\nID                             : 1\nFormat                         : AVC\nFormat/Info                    : Advanced Video Codec\nFormat profile                 : &lt;a class=&quot;__cf_email__&quot; href=&quot;/cdn-cgi/l/email-protection&quot; data-cfemail=&quot;773f1e101f373b445947&quot;&gt;[email&amp;#160;protected]&lt;/a&gt;&lt;script cf-hash='f9e31' type=&quot;text/javascript&quot;&gt;\n/* &lt;![CDATA[ */!function(){try{var t=&quot;currentScript&quot;in document?document.currentScript:function(){for(var t=document.getElementsByTagName(&quot;script&quot;),e=t.length;e--;)if(t[e].getAttribute(&quot;cf-hash&quot;))return t[e]}();if(t&amp;&amp;t.previousSibling){var e,r,n,i,c=t.previousSibling,a=c.getAttribute(&quot;data-cfemail&quot;);if(a){for(e=&quot;&quot;,r=parseInt(a.substr(0,2),16),n=2;a.length-n;n+=2)i=parseInt(a.substr(n,2),16)^r,e+=String.fromCharCode(i);e=document.createTextNode(e),c.parentNode.replaceChild(e,c)}}}catch(u){}}();/* ]]&gt; */&lt;/script&gt;\nFormat settings, CABAC         : Yes\nFormat settings, ReFrames      : 2 frames\nCodec ID                       : avc1\nCodec ID/Info                  : Advanced Video Coding\nDuration                       : 3mn 47s\nBit rate                       : 3 715 Kbps\nMaximum bit rate               : 7 207 Kbps\nWidth                          : 640 pixels\nHeight                         : 480 pixels\nDisplay aspect ratio           : 4:3\nFrame rate mode                : Constant\nFrame rate                     : 23.976 fps\nColor space                    : YUV\nChroma subsampling             : 4:2:0\nBit depth                      : 8 bits\nScan type                      : Progressive\nBits/(Pixel*Frame)             : 0.504\nStream size                    : 101 MiB (95%)\n\n\nAudio\nID                             : 2\nFormat                         : AAC\nFormat/Info                    : Advanced Audio Codec\nFormat profile                 : LC\nCodec ID                       : 40\nDuration                       : 3mn 48s\nBit rate mode                  : Variable\nBit rate                       : 192 Kbps\nMaximum bit rate               : 204 Kbps\nChannel(s)                     : 2 channels\nChannel positions              : Front: L R\nSampling rate                  : 48.0 KHz\nCompression mode               : Lossy\nDelay relative to video        : -833ms\nStream size                    : 5.23 MiB (5%)","torrent":{"xt":"urn:btih:3b3a4de61a4fe6c8e54a69cb6c62043cb4cb3245","amp;dn":"Nengo+Flow+Ft+Wise+-+La+Calle+No+Juega+%28h264%2Fmp4%29","amp;tr":["udp%3A%2F%2Ftracker.openbittorrent.com%3A80","udp%3A%2F%2Fopen.demonii.com%3A1337","udp%3A%2F%2Ftracker.coppersurfer.tk%3A6969","udp%3A%2F%2Fexodus.desync.com%3A6969"],"infoHash":"3b3a4de61a4fe6c8e54a69cb6c62043cb4cb3245","infoHashBuffer":{"type":"Buffer","data":[59,58,77,230,26,79,230,200,229,74,105,203,108,98,4,60,180,203,50,69]},"announce":[],"urlList":[]}}